<svg viewBox="0 0 16 16" xmlns="http://www.w3.org/2000/svg"><path d="m12 0c-0.55 1.4803e-16 -1 0.45-1 1v2h-2c-0.55 0-1 0.45-1 1s0.45 1 1 1h2v2c0 0.55 0.45 1 1 1 0.55 0 1-0.45 1-1v-2h2c0.55 0 1-0.45 1-1s-0.45-1-1-1h-2v-2c0-0.55-0.45-1-1-1zm-9.0098 1.9902c-0.41 0-0.76992 0.24938-0.91992 0.60938l-2.0801 4.8496v5.541c0 0.55 0.45 1 1 1h14c0.55 0 1-0.45 1-1v-5.541l-0.14648-0.33984a5 5 0 0 1-3.8906 1.8672 5 5 0 0 1-0.94141-0.091797c-0.004037 0.0363-0.021485 0.068138-0.021485 0.10547v1h-6v-1c0-0.55-0.45-1-1-1h-2.0508l1.7109-4h3.3027a5 5 0 0 1 0-0.013672 5 5 0 0 1 0.41406-1.9863h-4.377z" fill='#0072c6'/></svg>
