<?xml version="1.0" encoding="UTF-8" standalone="no"?>
<!-- Generator: Adobe Illustrator 17.1.0, SVG Export Plug-In . SVG Version: 6.00 Build 0)  -->

<svg
   xmlns:osb="http://www.openswatchbook.org/uri/2009/osb"
   xmlns:dc="http://purl.org/dc/elements/1.1/"
   xmlns:cc="http://creativecommons.org/ns#"
   xmlns:rdf="http://www.w3.org/1999/02/22-rdf-syntax-ns#"
   xmlns:svg="http://www.w3.org/2000/svg"
   xmlns="http://www.w3.org/2000/svg"
   xmlns:xlink="http://www.w3.org/1999/xlink"
   xmlns:sodipodi="http://sodipodi.sourceforge.net/DTD/sodipodi-0.dtd"
   xmlns:inkscape="http://www.inkscape.org/namespaces/inkscape"
   version="1.1"
   id="Layer_1"
   x="0px"
   y="0px"
   viewBox="0 0 16 16"
   enable-background="new 0 0 16 16"
   xml:space="preserve"
   sodipodi:docname="inbox.svg"
   inkscape:version="0.92.4 (5da689c313, 2019-01-14)"><metadata
   id="metadata12"><rdf:RDF><cc:Work
       rdf:about=""><dc:format>image/svg+xml</dc:format><dc:type
         rdf:resource="http://purl.org/dc/dcmitype/StillImage" /></cc:Work></rdf:RDF></metadata><defs
   id="defs10"><linearGradient
   id="linearGradient5265"
   osb:paint="solid"><stop
     style="stop-color:#000000;stop-opacity:1;"
     offset="0"
     id="stop5263" /></linearGradient><clipPath
   clipPathUnits="userSpaceOnUse"
   id="clipPath3744"><g
     id="use3746"
     inkscape:label="Clip"><rect
       id="rect4688"
       width="1.3"
       height="5.3728814"
       x="17.932203"
       y="2.6271186"
       style="stroke-width:0.93894047" /><rect
       id="rect4690"
       width="1.3"
       height="5.3728814"
       x="4.688983"
       y="-21.313559"
       style="stroke-width:0.93894047"
       transform="rotate(90)" /></g></clipPath>
	
<linearGradient
   inkscape:collect="always"
   xlink:href="#linearGradient5265"
   id="linearGradient6892"
   gradientUnits="userSpaceOnUse"
   x1="-0.01"
   y1="7.99"
   x2="15.99"
   y2="7.99" />
		
	</defs><sodipodi:namedview
   pagecolor="#ffffff"
   bordercolor="#666666"
   borderopacity="1"
   objecttolerance="10"
   gridtolerance="10"
   guidetolerance="10"
   inkscape:pageopacity="0"
   inkscape:pageshadow="2"
   inkscape:window-width="1920"
   inkscape:window-height="1016"
   id="namedview8"
   showgrid="false"
   inkscape:zoom="5.6568542"
   inkscape:cx="-19.217966"
   inkscape:cy="0.19015106"
   inkscape:window-x="0"
   inkscape:window-y="27"
   inkscape:window-maximized="1"
   inkscape:current-layer="Layer_1" />
<path
   style="clip-rule:evenodd;fill:url(#linearGradient6892);fill-opacity:1;fill-rule:evenodd"
   d="M 12 0 C 11.45 1.4802974e-16 11 0.45 11 1 L 11 3 L 9 3 C 8.4500002 3 8 3.45 8 4 C 8 4.55 8.4500002 5 9 5 L 11 5 L 11 7 C 11 7.55 11.45 8 12 8 C 12.549999 8 13 7.55 13 7 L 13 5 L 15 5 C 15.55 5 16 4.55 16 4 C 16 3.45 15.55 3 15 3 L 13 3 L 13 1 C 13 0.45 12.549999 -2.220446e-16 12 0 z M 2.9902344 1.9902344 C 2.5802344 1.9902344 2.2203125 2.2396094 2.0703125 2.5996094 L -0.009765625 7.4492188 L -0.009765625 12.990234 C -0.009765625 13.540234 0.44023437 13.990234 0.99023438 13.990234 L 14.990234 13.990234 C 15.540234 13.990234 15.990234 13.540234 15.990234 12.990234 L 15.990234 7.4492188 L 15.84375 7.109375 A 5 5 0 0 1 11.953125 8.9765625 A 5 5 0 0 1 11.011719 8.8847656 C 11.007682 8.9210658 10.990234 8.9529034 10.990234 8.9902344 L 10.990234 9.9902344 L 4.9902344 9.9902344 L 4.9902344 8.9902344 C 4.9902344 8.4402344 4.5402344 7.9902344 3.9902344 7.9902344 L 1.9394531 7.9902344 L 3.6503906 3.9902344 L 6.953125 3.9902344 A 5 5 0 0 1 6.953125 3.9765625 A 5 5 0 0 1 7.3671875 1.9902344 L 2.9902344 1.9902344 z "
   id="path2" />
</svg>